PathFileType	4	(X/Y/Z)	D:\telocate\uwb03-Unnamed.trc
DataRate	CameraRate	NumFrames	NumMarkers	Units	OrigDataRate	OrigDataStartFrame	OrigNumFrames
100.00	100.00	      83	0	mm	100.00	7477	      9968
Frame#	Time	
		

7477	74.760	-1437.45300	-2447.88184	1256.74304	
7478	74.770	-1438.39465	-2447.91992	1256.70215	
7479	74.780	-1439.18567	-2448.43628	1256.88245	
7480	74.790	-1440.19556	-2448.27246	1257.11267	
7481	74.800	-1440.72864	-2448.28394	1257.10254	
7482	74.810	-1441.56067	-2448.44800	1257.02844	
7483	74.820	-1444.88867	-2448.88721	1256.89124	
7484	74.830	-1445.38159	-2449.50000	1256.83887	
7485	74.840	-1445.82166	-2449.77686	1256.74609	
7486	74.850	-1446.24573	-2450.11841	1256.74048	
7487	74.860	-1446.62122	-2450.54395	1256.72449	
7488	74.870	-1447.07104	-2450.96265	1256.59607	
7489	74.880	-1447.84985	-2451.90405	1256.62158	
7490	74.890	-1448.74927	-2452.30957	1256.43115	
7491	74.900	-1449.57605	-2452.67554	1256.43250	
7492	74.910	-1450.29944	-2452.85034	1256.27795	
7493	74.920	-1451.09204	-2453.42432	1256.77283	
7494	74.930	-1452.58850	-2453.52881	1256.82495	
7495	74.940	-1453.61206	-2453.59033	1256.66602	
7496	74.950	-1454.38635	-2453.46680	1256.54529	
7497	74.960	-1455.04663	-2453.67920	1256.61707	
7498	74.970	-1455.45508	-2453.57666	1256.66089	
7499	74.980	-1455.91919	-2453.80762	1256.53442	
7500	74.990	-1456.08362	-2454.01367	1256.53027	
7501	75.000	-1456.27246	-2454.22876	1256.66565	
7502	75.010	-1456.50122	-2454.50854	1256.71118	
7503	75.020	-1456.66943	-2454.65161	1256.63550	
7504	75.030	-1457.03943	-2454.82202	1256.80127	
7505	75.040	-1457.46252	-2454.92969	1256.67432	
7506	75.050	-1457.84363	-2455.29810	1256.69019	
7507	75.060	-1458.45508	-2455.35938	1256.78772	
7508	75.070	-1456.70715	-2455.36353	1256.68018	
7509	75.080	-1457.00085	-2455.01221	1256.46021	
7510	75.090	-1457.23962	-2454.91138	1256.36499	
7511	75.100	-1457.27771	-2454.88135	1256.34753	
7512	75.110	-1457.13574	-2455.14307	1256.55444	
7513	75.120	-1458.83984	-2455.50415	1256.75403	
7514	75.130	-1456.32825	-2456.73535	1257.00940	
7515	75.140	-1455.89307	-2456.65942	1256.74927	
7516	75.150	-1458.39063	-2456.65991	1256.68420	
7517	75.160	-1455.94702	-2456.67285	1256.69666	
7518	75.170	-1458.73950	-2456.72876	1256.98767	
7519	75.180	-1458.83044	-2455.78931	1256.71777	
7520	75.190	-1456.48669	-2456.55396	1256.99072	
7521	75.200	-1456.39990	-2456.40552	1257.03760	
7522	75.210	-1458.60364	-2455.63477	1256.86536	
7523	75.220	-1455.96570	-2455.30933	1256.64001	
7524	75.230	-1457.59241	-2456.02441	1256.98450	
7525	75.240	-1457.10059	-2456.27979	1257.07520	
7526	75.250	-1456.26904	-2456.20142	1256.74866	
7527	75.260	-1455.33203	-2456.15430	1256.57349	
7528	75.270	-1454.53284	-2456.14771	1256.50342	
7529	75.280	-1453.03308	-2456.07300	1256.90247	
7530	75.290	-1452.54480	-2456.07031	1256.87903	
7531	75.300	-1451.74036	-2455.83667	1256.89026	
7532	75.310	-1450.78943	-2455.59033	1256.29626	
7533	75.320	-1450.48193	-2455.52246	1256.32202	
7534	75.330	-1450.15649	-2455.59497	1256.22424	
7535	75.340	-1448.97546	-2455.13501	1256.17920	
7536	75.350	-1448.54553	-2454.92920	1256.34399	
7537	75.360	-1448.07275	-2454.87476	1256.33203	
7538	75.370	-1447.28076	-2454.54565	1256.35071	
7539	75.380	-1446.85510	-2454.27441	1256.47949	
7540	75.390	-1446.52893	-2454.11157	1256.50403	
7541	75.400	-1445.71887	-2453.85718	1256.61145	
7542	75.410	-1445.09058	-2453.58887	1256.60535	
7543	75.420	-1444.57605	-2453.27881	1256.60583	
7544	75.430	-1444.23303	-2452.97168	1256.62903	
7545	75.440	-1441.26172	-2452.90527	1256.88843	
7546	75.450	-1440.16992	-2452.63770	1256.86572	
7547	75.460	-1439.76099	-2451.71069	1256.46289	
7548	75.470	-1439.31519	-2452.31445	1256.69250	
7549	75.480	-1439.04163	-2451.53442	1256.63379	
7550	75.490	-1438.69238	-2451.15894	1256.70203	
7551	75.500	-1438.25159	-2450.86890	1256.60474	
7552	75.510	-1437.93542	-2450.64014	1256.60828	
7553	75.520	-1437.46362	-2450.26196	1256.57751	
7554	75.530	-1436.32422	-2449.84277	1256.82336	
7555	75.540	-1435.80493	-2449.94336	1256.81494	
7556	75.550	-1435.17480	-2449.96680	1257.10083	
7557	75.560	-1434.62622	-2450.08716	1257.24902	
7558	75.570	-1434.02856	-2450.11768	1257.28235	
7559	75.580	-1432.97998	-2449.80737	1256.81140	
